<svg xmlns="http://www.w3.org/2000/svg" xmlns:xlink="http://www.w3.org/1999/xlink" width="500" zoomAndPan="magnify" viewBox="0 0 375 374.999991" height="500" preserveAspectRatio="xMidYMid meet" version="1.0"><defs><filter x="0%" y="0%" width="100%" height="100%" id="2a932418d8"><feColorMatrix values="0 0 0 0 1 0 0 0 0 1 0 0 0 0 1 0 0 0 1 0" color-interpolation-filters="sRGB"/></filter><g/><mask id="814f45da78"><g filter="url(#2a932418d8)"><rect x="-37.5" width="450" fill="#000000" y="-37.499999" height="449.999989" fill-opacity="0.5"/></g></mask><clipPath id="33c7f09bd0"><path d="M 0.238281 3 L 8 3 L 8 12 L 0.238281 12 Z M 0.238281 3 " clip-rule="nonzero"/></clipPath><clipPath id="504e31dece"><rect x="0" width="189" y="0" height="15"/></clipPath></defs><rect x="-37.5" width="450" fill="#ffffff" y="-37.499999" height="449.999989" fill-opacity="1"/><rect x="-37.5" width="450" fill="#0f4066" y="-37.499999" height="449.999989" fill-opacity="1"/><g fill="#ffffff" fill-opacity="1"><g transform="translate(95.464137, 217.888507)"><g><path d="M 5.78125 -31.640625 L 7.328125 -31.640625 L 7.328125 -1.40625 L 25.859375 -1.40625 L 25.859375 0 L 5.78125 0 Z M 5.78125 -31.640625 "/></g></g></g><g fill="#ffffff" fill-opacity="1"><g transform="translate(128.009868, 217.888507)"><g><path d="M 5.015625 -23.453125 L 6.515625 -23.453125 L 6.515625 0 L 5.015625 0 Z M 5.734375 -29.609375 C 5.335938 -29.609375 4.988281 -29.75 4.6875 -30.03125 C 4.394531 -30.320312 4.25 -30.660156 4.25 -31.046875 C 4.25 -31.472656 4.390625 -31.828125 4.671875 -32.109375 C 4.960938 -32.398438 5.316406 -32.546875 5.734375 -32.546875 C 6.128906 -32.546875 6.476562 -32.398438 6.78125 -32.109375 C 7.082031 -31.828125 7.234375 -31.488281 7.234375 -31.09375 C 7.234375 -30.707031 7.082031 -30.363281 6.78125 -30.0625 C 6.476562 -29.757812 6.128906 -29.609375 5.734375 -29.609375 Z M 5.734375 -29.609375 "/></g></g></g><g fill="#ffffff" fill-opacity="1"><g transform="translate(145.775474, 217.888507)"><g><path d="M 16.09375 -23.640625 C 19.019531 -23.640625 21.328125 -22.785156 23.015625 -21.078125 C 24.703125 -19.378906 25.546875 -16.945312 25.546875 -13.78125 L 25.546875 0 L 24.046875 0 L 24.046875 -13.703125 C 24.046875 -16.472656 23.34375 -18.585938 21.9375 -20.046875 C 20.539062 -21.503906 18.546875 -22.234375 15.953125 -22.234375 C 13.035156 -22.234375 10.734375 -21.367188 9.046875 -19.640625 C 7.359375 -17.910156 6.515625 -15.582031 6.515625 -12.65625 L 6.515625 0 L 5.015625 0 L 5.015625 -23.453125 L 6.46875 -23.453125 L 6.46875 -17.71875 C 7.21875 -19.5625 8.425781 -21.007812 10.09375 -22.0625 C 11.769531 -23.113281 13.769531 -23.640625 16.09375 -23.640625 Z M 16.09375 -23.640625 "/></g></g></g><g fill="#ffffff" fill-opacity="1"><g transform="translate(182.298736, 217.888507)"><g><path d="M 24.359375 -11.53125 L 3.796875 -11.53125 C 3.828125 -9.539062 4.289062 -7.757812 5.1875 -6.1875 C 6.09375 -4.625 7.335938 -3.40625 8.921875 -2.53125 C 10.503906 -1.65625 12.273438 -1.21875 14.234375 -1.21875 C 15.835938 -1.21875 17.316406 -1.507812 18.671875 -2.09375 C 20.023438 -2.6875 21.140625 -3.554688 22.015625 -4.703125 L 22.96875 -3.703125 C 21.90625 -2.472656 20.617188 -1.523438 19.109375 -0.859375 C 17.609375 -0.191406 15.984375 0.140625 14.234375 0.140625 C 11.941406 0.140625 9.898438 -0.363281 8.109375 -1.375 C 6.316406 -2.382812 4.90625 -3.789062 3.875 -5.59375 C 2.851562 -7.40625 2.34375 -9.457031 2.34375 -11.75 C 2.34375 -14.039062 2.816406 -16.085938 3.765625 -17.890625 C 4.722656 -19.703125 6.046875 -21.113281 7.734375 -22.125 C 9.421875 -23.132812 11.300781 -23.640625 13.375 -23.640625 C 15.425781 -23.640625 17.285156 -23.140625 18.953125 -22.140625 C 20.628906 -21.148438 21.945312 -19.765625 22.90625 -17.984375 C 23.875 -16.210938 24.359375 -14.195312 24.359375 -11.9375 Z M 13.375 -22.28125 C 11.632812 -22.28125 10.054688 -21.875 8.640625 -21.0625 C 7.222656 -20.25 6.09375 -19.109375 5.25 -17.640625 C 4.40625 -16.179688 3.9375 -14.550781 3.84375 -12.75 L 22.96875 -12.75 C 22.84375 -14.550781 22.347656 -16.179688 21.484375 -17.640625 C 20.628906 -19.109375 19.5 -20.25 18.09375 -21.0625 C 16.695312 -21.875 15.125 -22.28125 13.375 -22.28125 Z M 13.375 -22.28125 "/></g></g></g><g fill="#ffffff" fill-opacity="1"><g transform="translate(215.251258, 217.888507)"><g><path d="M 25.625 0 L 14.234375 -15.234375 L 2.796875 0 L 1.046875 0 L 13.296875 -16.359375 L 1.90625 -31.640625 L 3.703125 -31.640625 L 14.28125 -17.5 L 24.8125 -31.640625 L 26.53125 -31.640625 L 15.140625 -16.359375 L 27.4375 0 Z M 25.625 0 "/></g></g></g><g fill="#ffffff" fill-opacity="1"><g transform="translate(249.966553, 217.888507)"><g><path d="M 13.78125 0.1875 C 11.488281 0.1875 9.3125 -0.21875 7.25 -1.03125 C 5.1875 -1.851562 3.597656 -2.910156 2.484375 -4.203125 L 3.296875 -5.28125 C 4.347656 -4.082031 5.816406 -3.097656 7.703125 -2.328125 C 9.585938 -1.554688 11.597656 -1.171875 13.734375 -1.171875 C 16.898438 -1.171875 19.289062 -1.796875 20.90625 -3.046875 C 22.519531 -4.296875 23.328125 -5.898438 23.328125 -7.859375 C 23.328125 -9.367188 22.90625 -10.582031 22.0625 -11.5 C 21.21875 -12.425781 20.175781 -13.117188 18.9375 -13.578125 C 17.707031 -14.046875 16.019531 -14.535156 13.875 -15.046875 C 11.582031 -15.617188 9.742188 -16.175781 8.359375 -16.71875 C 6.972656 -17.257812 5.796875 -18.085938 4.828125 -19.203125 C 3.867188 -20.328125 3.390625 -21.820312 3.390625 -23.6875 C 3.390625 -25.164062 3.78125 -26.519531 4.5625 -27.75 C 5.34375 -28.988281 6.539062 -29.976562 8.15625 -30.71875 C 9.769531 -31.457031 11.78125 -31.828125 14.1875 -31.828125 C 15.90625 -31.828125 17.597656 -31.566406 19.265625 -31.046875 C 20.941406 -30.535156 22.367188 -29.832031 23.546875 -28.9375 L 22.875 -27.703125 C 21.632812 -28.609375 20.253906 -29.296875 18.734375 -29.765625 C 17.210938 -30.234375 15.710938 -30.46875 14.234375 -30.46875 C 11.160156 -30.46875 8.832031 -29.828125 7.25 -28.546875 C 5.664062 -27.265625 4.875 -25.644531 4.875 -23.6875 C 4.875 -22.144531 5.300781 -20.914062 6.15625 -20 C 7.019531 -19.082031 8.078125 -18.378906 9.328125 -17.890625 C 10.578125 -17.410156 12.257812 -16.914062 14.375 -16.40625 C 16.664062 -15.832031 18.503906 -15.28125 19.890625 -14.75 C 21.273438 -14.226562 22.441406 -13.414062 23.390625 -12.3125 C 24.335938 -11.21875 24.8125 -9.75 24.8125 -7.90625 C 24.8125 -6.4375 24.410156 -5.082031 23.609375 -3.84375 C 22.816406 -2.601562 21.59375 -1.617188 19.9375 -0.890625 C 18.28125 -0.171875 16.226562 0.1875 13.78125 0.1875 Z M 13.78125 0.1875 "/></g></g></g><g mask="url(#814f45da78)"><g transform="matrix(1, 0, 0, 1, 96, 222)"><g clip-path="url(#504e31dece)"><g clip-path="url(#33c7f09bd0)"><g fill="#ffffff" fill-opacity="1"><g transform="translate(0.435467, 11.616899)"><g><path d="M 3.625 0.15625 C 2.96875 0.15625 2.332031 0.078125 1.71875 -0.078125 C 1.113281 -0.242188 0.617188 -0.457031 0.234375 -0.71875 L 0.984375 -2.390625 C 1.335938 -2.148438 1.75 -1.957031 2.21875 -1.8125 C 2.695312 -1.675781 3.164062 -1.609375 3.625 -1.609375 C 4.5 -1.609375 4.9375 -1.820312 4.9375 -2.25 C 4.9375 -2.476562 4.8125 -2.648438 4.5625 -2.765625 C 4.3125 -2.878906 3.914062 -2.992188 3.375 -3.109375 C 2.769531 -3.242188 2.265625 -3.382812 1.859375 -3.53125 C 1.453125 -3.675781 1.101562 -3.910156 0.8125 -4.234375 C 0.519531 -4.566406 0.375 -5.015625 0.375 -5.578125 C 0.375 -6.066406 0.503906 -6.503906 0.765625 -6.890625 C 1.035156 -7.285156 1.4375 -7.597656 1.96875 -7.828125 C 2.5 -8.054688 3.148438 -8.171875 3.921875 -8.171875 C 4.453125 -8.171875 4.972656 -8.113281 5.484375 -8 C 5.992188 -7.882812 6.445312 -7.710938 6.84375 -7.484375 L 6.140625 -5.796875 C 5.378906 -6.203125 4.640625 -6.40625 3.921875 -6.40625 C 3.460938 -6.40625 3.128906 -6.335938 2.921875 -6.203125 C 2.722656 -6.078125 2.625 -5.90625 2.625 -5.6875 C 2.625 -5.476562 2.742188 -5.316406 2.984375 -5.203125 C 3.234375 -5.097656 3.628906 -4.988281 4.171875 -4.875 C 4.773438 -4.75 5.273438 -4.609375 5.671875 -4.453125 C 6.078125 -4.304688 6.425781 -4.070312 6.71875 -3.75 C 7.019531 -3.425781 7.171875 -2.984375 7.171875 -2.421875 C 7.171875 -1.941406 7.035156 -1.503906 6.765625 -1.109375 C 6.503906 -0.722656 6.101562 -0.414062 5.5625 -0.1875 C 5.03125 0.0390625 4.382812 0.15625 3.625 0.15625 Z M 3.625 0.15625 "/></g></g></g></g><g fill="#ffffff" fill-opacity="1"><g transform="translate(11.42954, 11.616899)"><g><path d="M 0.796875 -8.015625 L 3.0625 -8.015625 L 3.0625 0 L 0.796875 0 Z M 0.796875 -8.015625 "/></g></g></g><g fill="#ffffff" fill-opacity="1"><g transform="translate(18.897242, 11.616899)"><g><path d="M 8.046875 0 L 8.015625 -4.25 L 5.953125 -0.796875 L 4.953125 -0.796875 L 2.890625 -4.140625 L 2.890625 0 L 0.796875 0 L 0.796875 -8.015625 L 2.671875 -8.015625 L 5.484375 -3.390625 L 8.234375 -8.015625 L 10.109375 -8.015625 L 10.125 0 Z M 8.046875 0 "/></g></g></g><g fill="#ffffff" fill-opacity="1"><g transform="translate(33.406242, 11.616899)"><g><path d="M 4.46875 -8.015625 C 5.195312 -8.015625 5.828125 -7.894531 6.359375 -7.65625 C 6.890625 -7.414062 7.300781 -7.070312 7.59375 -6.625 C 7.882812 -6.175781 8.03125 -5.648438 8.03125 -5.046875 C 8.03125 -4.441406 7.882812 -3.914062 7.59375 -3.46875 C 7.300781 -3.03125 6.890625 -2.691406 6.359375 -2.453125 C 5.828125 -2.210938 5.195312 -2.09375 4.46875 -2.09375 L 3.0625 -2.09375 L 3.0625 0 L 0.796875 0 L 0.796875 -8.015625 Z M 4.328125 -3.875 C 4.796875 -3.875 5.144531 -3.972656 5.375 -4.171875 C 5.613281 -4.378906 5.734375 -4.671875 5.734375 -5.046875 C 5.734375 -5.421875 5.613281 -5.710938 5.375 -5.921875 C 5.144531 -6.128906 4.796875 -6.234375 4.328125 -6.234375 L 3.0625 -6.234375 L 3.0625 -3.875 Z M 4.328125 -3.875 "/></g></g></g><g fill="#ffffff" fill-opacity="1"><g transform="translate(45.430752, 11.616899)"><g><path d="M 0.796875 -8.015625 L 3.0625 -8.015625 L 3.0625 -1.796875 L 6.890625 -1.796875 L 6.890625 0 L 0.796875 0 Z M 0.796875 -8.015625 "/></g></g></g><g fill="#ffffff" fill-opacity="1"><g transform="translate(56.001198, 11.616899)"><g><path d="M 7.234375 -1.75 L 7.234375 0 L 0.796875 0 L 0.796875 -8.015625 L 7.09375 -8.015625 L 7.09375 -6.265625 L 3.046875 -6.265625 L 3.046875 -4.90625 L 6.609375 -4.90625 L 6.609375 -3.21875 L 3.046875 -3.21875 L 3.046875 -1.75 Z M 7.234375 -1.75 "/></g></g></g><g fill="#ffffff" fill-opacity="1"><g transform="translate(67.281513, 11.616899)"><g/></g></g><g fill="#ffffff" fill-opacity="1"><g transform="translate(74.199649, 11.616899)"><g><path d="M 7.234375 -1.75 L 7.234375 0 L 0.796875 0 L 0.796875 -8.015625 L 7.09375 -8.015625 L 7.09375 -6.265625 L 3.046875 -6.265625 L 3.046875 -4.90625 L 6.609375 -4.90625 L 6.609375 -3.21875 L 3.046875 -3.21875 L 3.046875 -1.75 Z M 7.234375 -1.75 "/></g></g></g><g fill="#ffffff" fill-opacity="1"><g transform="translate(85.479963, 11.616899)"><g><path d="M 5.859375 0 L 4.203125 -2.484375 L 2.5625 0 L -0.015625 0 L 2.890625 -4.046875 L 0.109375 -8.015625 L 2.65625 -8.015625 L 4.265625 -5.703125 L 5.84375 -8.015625 L 8.296875 -8.015625 L 5.5 -4.140625 L 8.46875 0 Z M 5.859375 0 "/></g></g></g><g fill="#ffffff" fill-opacity="1"><g transform="translate(97.504476, 11.616899)"><g><path d="M 4.46875 -8.015625 C 5.195312 -8.015625 5.828125 -7.894531 6.359375 -7.65625 C 6.890625 -7.414062 7.300781 -7.070312 7.59375 -6.625 C 7.882812 -6.175781 8.03125 -5.648438 8.03125 -5.046875 C 8.03125 -4.441406 7.882812 -3.914062 7.59375 -3.46875 C 7.300781 -3.03125 6.890625 -2.691406 6.359375 -2.453125 C 5.828125 -2.210938 5.195312 -2.09375 4.46875 -2.09375 L 3.0625 -2.09375 L 3.0625 0 L 0.796875 0 L 0.796875 -8.015625 Z M 4.328125 -3.875 C 4.796875 -3.875 5.144531 -3.972656 5.375 -4.171875 C 5.613281 -4.378906 5.734375 -4.671875 5.734375 -5.046875 C 5.734375 -5.421875 5.613281 -5.710938 5.375 -5.921875 C 5.144531 -6.128906 4.796875 -6.234375 4.328125 -6.234375 L 3.0625 -6.234375 L 3.0625 -3.875 Z M 4.328125 -3.875 "/></g></g></g><g fill="#ffffff" fill-opacity="1"><g transform="translate(109.528988, 11.616899)"><g><path d="M 7.234375 -1.75 L 7.234375 0 L 0.796875 0 L 0.796875 -8.015625 L 7.09375 -8.015625 L 7.09375 -6.265625 L 3.046875 -6.265625 L 3.046875 -4.90625 L 6.609375 -4.90625 L 6.609375 -3.21875 L 3.046875 -3.21875 L 3.046875 -1.75 Z M 7.234375 -1.75 "/></g></g></g><g fill="#ffffff" fill-opacity="1"><g transform="translate(120.809303, 11.616899)"><g><path d="M 4.3125 -2.125 L 3.0625 -2.125 L 3.0625 0 L 0.796875 0 L 0.796875 -8.015625 L 4.46875 -8.015625 C 5.195312 -8.015625 5.828125 -7.894531 6.359375 -7.65625 C 6.890625 -7.414062 7.300781 -7.070312 7.59375 -6.625 C 7.882812 -6.175781 8.03125 -5.648438 8.03125 -5.046875 C 8.03125 -4.472656 7.894531 -3.96875 7.625 -3.53125 C 7.351562 -3.101562 6.960938 -2.765625 6.453125 -2.515625 L 8.1875 0 L 5.765625 0 Z M 5.734375 -5.046875 C 5.734375 -5.421875 5.613281 -5.710938 5.375 -5.921875 C 5.144531 -6.128906 4.796875 -6.234375 4.328125 -6.234375 L 3.0625 -6.234375 L 3.0625 -3.875 L 4.328125 -3.875 C 4.796875 -3.875 5.144531 -3.972656 5.375 -4.171875 C 5.613281 -4.378906 5.734375 -4.671875 5.734375 -5.046875 Z M 5.734375 -5.046875 "/></g></g></g><g fill="#ffffff" fill-opacity="1"><g transform="translate(132.868159, 11.616899)"><g><path d="M 0.796875 -8.015625 L 3.0625 -8.015625 L 3.0625 0 L 0.796875 0 Z M 0.796875 -8.015625 "/></g></g></g><g fill="#ffffff" fill-opacity="1"><g transform="translate(140.335863, 11.616899)"><g><path d="M 7.234375 -1.75 L 7.234375 0 L 0.796875 0 L 0.796875 -8.015625 L 7.09375 -8.015625 L 7.09375 -6.265625 L 3.046875 -6.265625 L 3.046875 -4.90625 L 6.609375 -4.90625 L 6.609375 -3.21875 L 3.046875 -3.21875 L 3.046875 -1.75 Z M 7.234375 -1.75 "/></g></g></g><g fill="#ffffff" fill-opacity="1"><g transform="translate(151.616178, 11.616899)"><g><path d="M 8.421875 -8.015625 L 8.421875 0 L 6.5625 0 L 3.03125 -4.265625 L 3.03125 0 L 0.796875 0 L 0.796875 -8.015625 L 2.671875 -8.015625 L 6.203125 -3.75 L 6.203125 -8.015625 Z M 8.421875 -8.015625 "/></g></g></g><g fill="#ffffff" fill-opacity="1"><g transform="translate(164.430688, 11.616899)"><g><path d="M 4.796875 0.15625 C 3.953125 0.15625 3.195312 -0.0195312 2.53125 -0.375 C 1.863281 -0.726562 1.335938 -1.222656 0.953125 -1.859375 C 0.578125 -2.492188 0.390625 -3.210938 0.390625 -4.015625 C 0.390625 -4.816406 0.578125 -5.53125 0.953125 -6.15625 C 1.335938 -6.789062 1.863281 -7.285156 2.53125 -7.640625 C 3.195312 -7.992188 3.953125 -8.171875 4.796875 -8.171875 C 5.523438 -8.171875 6.179688 -8.039062 6.765625 -7.78125 C 7.359375 -7.53125 7.851562 -7.160156 8.25 -6.671875 L 6.796875 -5.359375 C 6.285156 -5.984375 5.65625 -6.296875 4.90625 -6.296875 C 4.476562 -6.296875 4.09375 -6.203125 3.75 -6.015625 C 3.40625 -5.828125 3.140625 -5.554688 2.953125 -5.203125 C 2.773438 -4.859375 2.6875 -4.460938 2.6875 -4.015625 C 2.6875 -3.554688 2.773438 -3.15625 2.953125 -2.8125 C 3.140625 -2.46875 3.40625 -2.195312 3.75 -2 C 4.09375 -1.8125 4.476562 -1.71875 4.90625 -1.71875 C 5.65625 -1.71875 6.285156 -2.03125 6.796875 -2.65625 L 8.25 -1.34375 C 7.851562 -0.863281 7.359375 -0.492188 6.765625 -0.234375 C 6.179688 0.0234375 5.523438 0.15625 4.796875 0.15625 Z M 4.796875 0.15625 "/></g></g></g><g fill="#ffffff" fill-opacity="1"><g transform="translate(176.466644, 11.616899)"><g><path d="M 7.234375 -1.75 L 7.234375 0 L 0.796875 0 L 0.796875 -8.015625 L 7.09375 -8.015625 L 7.09375 -6.265625 L 3.046875 -6.265625 L 3.046875 -4.90625 L 6.609375 -4.90625 L 6.609375 -3.21875 L 3.046875 -3.21875 L 3.046875 -1.75 Z M 7.234375 -1.75 "/></g></g></g></g></g></g><path stroke-linecap="butt" transform="matrix(0.103057, -0.000000000000000077, 0.000000000000000077, 0.103057, 182.351155, 138.740645)" fill="none" stroke-linejoin="miter" d="M 0.00395484 5.511012 L 120.500049 5.511012 " stroke="#ffffff" stroke-width="11" stroke-opacity="1" stroke-miterlimit="4"/><path stroke-linecap="round" transform="matrix(0.103057, -0.000000000000000077, 0.000000000000000077, 0.103057, 182.351155, 138.740645)" fill="none" stroke-linejoin="round" d="M 156.281211 5.511012 C 156.281211 14.607917 148.889975 21.999153 139.755166 21.999153 C 130.65826 21.999153 123.267025 14.607917 123.267025 5.511012 C 123.267025 -3.623798 130.65826 -11.015033 139.755166 -11.015033 C 148.889975 -11.015033 156.281211 -3.623798 156.281211 5.511012 " stroke="#ffffff" stroke-width="11" stroke-opacity="1" stroke-miterlimit="4"/><path stroke-linecap="butt" transform="matrix(-0.0515285, 0.08925, -0.08925, -0.0515285, 183.304972, 139.288688)" fill="none" stroke-linejoin="miter" d="M -0.00380082 5.520093 L 123.925768 5.485431 " stroke="#ffffff" stroke-width="11" stroke-opacity="1" stroke-miterlimit="4"/><path stroke-linecap="round" transform="matrix(-0.0515285, 0.08925, -0.08925, -0.0515285, 183.304972, 139.288688)" fill="none" stroke-linejoin="round" d="M 159.689599 5.495438 C 159.65969 14.616347 152.273656 21.988169 143.171699 21.991086 C 134.069741 21.994002 126.665094 14.62692 126.695003 5.506011 C 126.673134 -3.628772 134.059168 -11.000594 143.161126 -11.003511 C 152.263083 -11.006427 159.686683 -3.60652 159.689599 5.495438 " stroke="#ffffff" stroke-width="11" stroke-opacity="1" stroke-miterlimit="4"/><path stroke-linecap="butt" transform="matrix(-0.103054, -0.000722791, 0.000722791, -0.103054, 202.37983, 146.94289)" fill="none" stroke-linejoin="miter" d="M 0.00971188 5.510508 L 123.920218 5.513248 " stroke="#ffffff" stroke-width="11" stroke-opacity="1" stroke-miterlimit="4"/><path stroke-linecap="round" transform="matrix(-0.103054, -0.000722791, 0.000722791, -0.103054, 202.37983, 146.94289)" fill="none" stroke-linejoin="round" d="M 159.664194 5.48998 C 159.690358 14.624831 152.274804 21.992449 143.177856 22.018348 C 134.04274 22.006609 126.675387 14.628959 126.687126 5.493842 C 126.661227 -3.603106 134.076515 -11.008628 143.173728 -10.996623 C 152.270942 -10.984619 159.676198 -3.607234 159.664194 5.48998 " stroke="#ffffff" stroke-width="11" stroke-opacity="1" stroke-miterlimit="4"/><path stroke-linecap="butt" transform="matrix(0.0509013, 0.0896092, -0.0896092, 0.0509013, 202.438906, 145.877275)" fill="none" stroke-linejoin="miter" d="M -0.0118503 5.501564 L 120.527308 5.489063 " stroke="#ffffff" stroke-width="11" stroke-opacity="1" stroke-miterlimit="4"/><path stroke-linecap="round" transform="matrix(0.0509013, 0.0896092, -0.0896092, 0.0509013, 202.438906, 145.877275)" fill="none" stroke-linejoin="round" d="M 156.258014 5.515095 C 156.267255 14.631086 148.867264 21.979519 139.751274 21.98876 C 130.635283 21.998001 123.268129 14.630968 123.258888 5.514978 C 123.249647 -3.601013 130.635401 -11.001125 139.751391 -11.010366 C 148.867382 -11.019607 156.248773 -3.600895 156.258014 5.515095 " stroke="#ffffff" stroke-width="11" stroke-opacity="1" stroke-miterlimit="4"/><path stroke-linecap="butt" transform="matrix(-0.0524555, -0.0887083, 0.0887083, -0.0524555, 205.430571, 166.790629)" fill="none" stroke-linejoin="miter" d="M -0.0124278 5.487036 L 123.934185 5.506006 " stroke="#ffffff" stroke-width="11" stroke-opacity="1" stroke-miterlimit="4"/><path stroke-linecap="round" transform="matrix(-0.0524555, -0.0887083, 0.0887083, -0.0524555, 205.430571, 166.790629)" fill="none" stroke-linejoin="round" d="M 159.687388 5.511107 C 159.674195 14.618499 152.271787 21.998545 143.164395 21.985351 C 134.03771 22.004784 126.657664 14.602376 126.670857 5.494984 C 126.684051 -3.612408 134.053833 -11.011747 143.161225 -10.998553 C 152.28791 -11.017986 159.667956 -3.615578 159.687388 5.511107 " stroke="#ffffff" stroke-width="11" stroke-opacity="1" stroke-miterlimit="4"/><path stroke-linecap="butt" transform="matrix(-0.0505959, 0.089782, -0.089782, -0.0505959, 206.425436, 166.268617)" fill="none" stroke-linejoin="miter" d="M 0.0248989 5.507659 L 120.490708 5.492865 " stroke="#ffffff" stroke-width="11" stroke-opacity="1" stroke-miterlimit="4"/><path stroke-linecap="round" transform="matrix(-0.0505959, 0.089782, -0.089782, -0.0505959, 206.425436, 166.268617)" fill="none" stroke-linejoin="round" d="M 156.26873 5.518239 C 156.261475 14.615537 148.887891 21.990467 139.757572 22.001821 C 130.660274 21.994566 123.285344 14.620982 123.27399 5.490663 C 123.281245 -3.606635 130.654829 -10.981565 139.785148 -10.992919 C 148.882446 -10.985664 156.257376 -3.61208 156.26873 5.518239 " stroke="#ffffff" stroke-width="11" stroke-opacity="1" stroke-miterlimit="4"/><path stroke-linecap="butt" transform="matrix(0.0512423, 0.0894147, -0.0894147, 0.0512423, 167.309494, 152.343842)" fill="none" stroke-linejoin="miter" d="M -0.0119854 5.507753 L 123.93071 5.502613 " stroke="#ffffff" stroke-width="11" stroke-opacity="1" stroke-miterlimit="4"/><path stroke-linecap="round" transform="matrix(0.0512423, 0.0894147, -0.0894147, 0.0512423, 167.309494, 152.343842)" fill="none" stroke-linejoin="round" d="M 159.67067 5.495509 C 159.678073 14.630315 152.264185 22.00224 143.181112 21.995604 C 134.046306 22.003007 126.655535 14.622005 126.681018 5.506046 C 126.673614 -3.62876 134.054616 -11.019531 143.170575 -10.994048 C 152.305381 -11.001452 159.696152 -3.62045 159.67067 5.495509 " stroke="#ffffff" stroke-width="11" stroke-opacity="1" stroke-miterlimit="4"/><path stroke-linecap="butt" transform="matrix(0.0518142, -0.0890844, 0.0890844, 0.0518142, 166.343269, 152.90772)" fill="none" stroke-linejoin="miter" d="M 0.00497043 5.483618 L 120.514561 5.505858 " stroke="#ffffff" stroke-width="11" stroke-opacity="1" stroke-miterlimit="4"/><path stroke-linecap="round" transform="matrix(0.0518142, -0.0890844, 0.0890844, 0.0518142, 166.343269, 152.90772)" fill="none" stroke-linejoin="round" d="M 156.250825 5.504906 C 156.282908 14.606808 148.868712 21.988551 139.747754 21.98787 C 130.645852 22.019953 123.264108 14.605757 123.26479 5.484799 C 123.284529 -3.603395 130.646903 -10.998847 139.767861 -10.998165 C 148.88882 -10.997483 156.251507 -3.616052 156.250825 5.504906 " stroke="#ffffff" stroke-width="11" stroke-opacity="1" stroke-miterlimit="4"/><path stroke-linecap="butt" transform="matrix(0.0515285, -0.08925, 0.08925, 0.0515285, 189.673674, 179.741883)" fill="none" stroke-linejoin="miter" d="M 0.0131997 5.486923 L 123.928895 5.504039 " stroke="#ffffff" stroke-width="11" stroke-opacity="1" stroke-miterlimit="4"/><path stroke-linecap="round" transform="matrix(0.0515285, -0.08925, 0.08925, 0.0515285, 189.673674, 179.741883)" fill="none" stroke-linejoin="round" d="M 159.673774 5.48122 C 159.695643 14.616003 152.276783 22.006776 143.174826 22.009693 C 134.072868 22.01261 126.682095 14.59375 126.679178 5.491793 C 126.676261 -3.610165 134.062295 -10.981987 143.164253 -10.984903 C 152.299036 -11.006772 159.670858 -3.620738 159.673774 5.48122 " stroke="#ffffff" stroke-width="11" stroke-opacity="1" stroke-miterlimit="4"/><path stroke-linecap="butt" transform="matrix(-0.103057, 0.000000000179868, -0.000000000179868, -0.103057, 190.584734, 180.345427)" fill="none" stroke-linejoin="miter" d="M -0.011682 5.512323 L 120.522316 5.512323 " stroke="#ffffff" stroke-width="11" stroke-opacity="1" stroke-miterlimit="4"/><path stroke-linecap="round" transform="matrix(-0.103057, 0.000000000179868, -0.000000000179868, -0.103057, 190.584734, 180.345427)" fill="none" stroke-linejoin="round" d="M 156.265574 5.512323 C 156.265574 14.609229 148.874338 22.000465 139.777433 22.000465 C 130.642623 22.000465 123.251388 14.609229 123.251388 5.512323 C 123.251388 -3.622486 130.642624 -11.013722 139.777433 -11.013722 C 148.874338 -11.013722 156.265574 -3.622486 156.265574 5.512323 " stroke="#ffffff" stroke-width="11" stroke-opacity="1" stroke-miterlimit="4"/><path stroke-linecap="butt" transform="matrix(0.103057, -0.000124507, 0.000124507, 0.103057, 170.470803, 172.510623)" fill="none" stroke-linejoin="miter" d="M 0.0113309 5.506697 L 123.918862 5.504778 " stroke="#ffffff" stroke-width="11" stroke-opacity="1" stroke-miterlimit="4"/><path stroke-linecap="round" transform="matrix(0.103057, -0.000124507, 0.000124507, 0.103057, 170.470803, 172.510623)" fill="none" stroke-linejoin="round" d="M 159.662141 5.510057 C 159.689055 14.607002 152.288895 21.989303 143.19195 22.016217 C 134.057147 22.005181 126.674846 14.60502 126.685836 5.508121 C 126.658968 -3.626728 134.059128 -11.009029 143.156028 -10.998038 C 152.290831 -10.987002 159.673177 -3.624746 159.662141 5.510057 " stroke="#ffffff" stroke-width="11" stroke-opacity="1" stroke-miterlimit="4"/><path stroke-linecap="butt" transform="matrix(-0.0516363, -0.0891877, 0.0891877, -0.0516363, 170.418289, 173.637865)" fill="none" stroke-linejoin="miter" d="M -0.0199608 5.503418 L 120.50661 5.513391 " stroke="#ffffff" stroke-width="11" stroke-opacity="1" stroke-miterlimit="4"/><path stroke-linecap="round" transform="matrix(-0.0516363, -0.0891877, 0.0891877, -0.0516363, 170.418289, 173.637865)" fill="none" stroke-linejoin="round" d="M 156.256617 5.494798 C 156.275506 14.615737 148.894767 21.99286 139.773827 22.011749 C 130.67188 21.997836 123.261954 14.598105 123.275868 5.496157 C 123.256978 -3.624782 130.637718 -11.001905 139.758657 -11.020794 C 148.860605 -11.006881 156.27053 -3.60715 156.256617 5.494798 " stroke="#ffffff" stroke-width="11" stroke-opacity="1" stroke-miterlimit="4"/></svg>