<svg xmlns="http://www.w3.org/2000/svg" xmlns:xlink="http://www.w3.org/1999/xlink" width="1080" zoomAndPan="magnify" viewBox="0 0 810 1439.999935" height="1920" preserveAspectRatio="xMidYMid meet" version="1.0"><rect x="-81" width="972" fill="#ffffff" y="-143.999994" height="1727.999922" fill-opacity="1"/><rect x="-81" width="972" fill="#0f4066" y="-143.999994" height="1727.999922" fill-opacity="1"/><path stroke-linecap="butt" transform="matrix(0.877751, -0.000000000000000653, 0.000000000000000653, 0.877751, 370.771774, 541.958261)" fill="none" stroke-linejoin="miter" d="M 0.00189508 5.499163 L 120.515878 5.499163 " stroke="#ffffff" stroke-width="11" stroke-opacity="1" stroke-miterlimit="4"/><path stroke-linecap="round" transform="matrix(0.877751, -0.000000000000000653, 0.000000000000000653, 0.877751, 370.771774, 541.958261)" fill="none" stroke-linejoin="round" d="M 156.265096 5.499163 C 156.265096 14.613367 148.877606 22.000856 139.763403 22.000856 C 130.653649 22.000856 123.26616 14.613367 123.26616 5.499163 C 123.26616 -3.61059 130.653649 -10.998079 139.763403 -10.998079 C 148.877606 -10.998079 156.265096 -3.61059 156.265096 5.499163 " stroke="#ffffff" stroke-width="11" stroke-opacity="1" stroke-miterlimit="4"/><path stroke-linecap="butt" transform="matrix(-0.438875, 0.760155, -0.760155, -0.438875, 378.895649, 546.625997)" fill="none" stroke-linejoin="miter" d="M -0.00125326 5.500664 L 123.92419 5.499203 " stroke="#ffffff" stroke-width="11" stroke-opacity="1" stroke-miterlimit="4"/><path stroke-linecap="round" transform="matrix(-0.438875, 0.760155, -0.760155, -0.438875, 378.895649, 546.625997)" fill="none" stroke-linejoin="round" d="M 159.675362 5.500645 C 159.673982 14.612459 152.285844 22.002367 143.17403 22.000988 C 134.062216 21.999608 126.672308 14.611471 126.673687 5.499656 C 126.675067 -3.612158 134.05935 -10.999841 143.175019 -11.000687 C 152.286833 -10.999307 159.670662 -3.612798 159.675362 5.500645 " stroke="#ffffff" stroke-width="11" stroke-opacity="1" stroke-miterlimit="4"/><path stroke-linecap="butt" transform="matrix(-0.877729, -0.00615611, 0.00615611, -0.877729, 541.358827, 611.817767)" fill="none" stroke-linejoin="miter" d="M -0.00211778 5.497814 L 123.923852 5.500917 " stroke="#ffffff" stroke-width="11" stroke-opacity="1" stroke-miterlimit="4"/><path stroke-linecap="round" transform="matrix(-0.877729, -0.00615611, 0.00615611, -0.877729, 541.358827, 611.817767)" fill="none" stroke-linejoin="round" d="M 159.673936 5.4994 C 159.671106 14.613847 152.286284 21.999908 143.171868 22.001527 C 134.061871 21.998666 126.671361 14.613876 126.674191 5.499428 C 126.672602 -3.610537 134.061843 -11.001079 143.17184 -10.998217 C 152.286256 -10.999837 159.672347 -3.610566 159.673936 5.4994 " stroke="#ffffff" stroke-width="11" stroke-opacity="1" stroke-miterlimit="4"/><path stroke-linecap="butt" transform="matrix(0.433533, 0.763214, -0.763214, 0.433533, 541.861915, 602.741928)" fill="none" stroke-linejoin="miter" d="M -0.00144724 5.499409 L 120.514622 5.501552 " stroke="#ffffff" stroke-width="11" stroke-opacity="1" stroke-miterlimit="4"/><path stroke-linecap="round" transform="matrix(0.433533, 0.763214, -0.763214, 0.433533, 541.861915, 602.741928)" fill="none" stroke-linejoin="round" d="M 156.265546 5.500524 C 156.26514 14.610616 148.877979 22.001952 139.764018 21.999348 C 130.653925 21.998942 123.26259 14.611782 123.262996 5.501689 C 123.265599 -3.612273 130.650562 -10.999738 139.766722 -11.001004 C 148.876814 -11.000598 156.262082 -3.611766 156.265546 5.500524 " stroke="#ffffff" stroke-width="11" stroke-opacity="1" stroke-miterlimit="4"/><path stroke-linecap="butt" transform="matrix(-0.446771, -0.755541, 0.755541, -0.446771, 567.342401, 780.863696)" fill="none" stroke-linejoin="miter" d="M 0.0012369 5.498371 L 123.923123 5.500224 " stroke="#ffffff" stroke-width="11" stroke-opacity="1" stroke-miterlimit="4"/><path stroke-linecap="round" transform="matrix(-0.446771, -0.755541, 0.755541, -0.446771, 567.342401, 780.863696)" fill="none" stroke-linejoin="round" d="M 159.674573 5.500288 C 159.672631 14.614088 152.286765 21.998355 143.1707 22.000244 C 134.06073 22.000566 126.672632 14.612436 126.674575 5.498635 C 126.674252 -3.611335 134.062382 -10.999432 143.172352 -10.999755 C 152.286153 -10.997813 159.67042 -3.611947 159.674573 5.500288 " stroke="#ffffff" stroke-width="11" stroke-opacity="1" stroke-miterlimit="4"/><path stroke-linecap="butt" transform="matrix(-0.430932, 0.764685, -0.764685, -0.430932, 575.815744, 776.417721)" fill="none" stroke-linejoin="miter" d="M -0.000376755 5.500996 L 120.514677 5.500669 " stroke="#ffffff" stroke-width="11" stroke-opacity="1" stroke-miterlimit="4"/><path stroke-linecap="round" transform="matrix(-0.430932, 0.764685, -0.764685, -0.430932, 575.815744, 776.417721)" fill="none" stroke-linejoin="round" d="M 156.263353 5.501959 C 156.264745 14.614399 148.877413 22.000814 139.764974 22.002206 C 130.650349 21.999721 123.263934 14.612389 123.262542 5.49995 C 123.265027 -3.614675 130.652359 -11.00109 139.764798 -11.002482 C 148.879423 -10.999997 156.265838 -3.612665 156.263353 5.501959 " stroke="#ffffff" stroke-width="11" stroke-opacity="1" stroke-miterlimit="4"/><path stroke-linecap="butt" transform="matrix(0.436437, 0.761557, -0.761557, 0.436437, 242.659992, 657.818539)" fill="none" stroke-linejoin="miter" d="M 0.000503389 5.498676 L 123.922609 5.50157 " stroke="#ffffff" stroke-width="11" stroke-opacity="1" stroke-miterlimit="4"/><path stroke-linecap="round" transform="matrix(0.436437, 0.761557, -0.761557, 0.436437, 242.659992, 657.818539)" fill="none" stroke-linejoin="round" d="M 159.675107 5.499281 C 159.673666 14.613212 152.284867 22.00178 143.170936 22.000338 C 134.060866 22.00111 126.672298 14.612312 126.673739 5.498381 C 126.672968 -3.611689 134.061766 -11.000257 143.171836 -11.001029 C 152.285767 -10.999588 159.674335 -3.610789 159.675107 5.499281 " stroke="#ffffff" stroke-width="11" stroke-opacity="1" stroke-miterlimit="4"/><path stroke-linecap="butt" transform="matrix(0.441309, -0.758744, 0.758744, 0.441309, 234.430383, 662.621058)" fill="none" stroke-linejoin="miter" d="M 0.000265861 5.497323 L 120.514534 5.501889 " stroke="#ffffff" stroke-width="11" stroke-opacity="1" stroke-miterlimit="4"/><path stroke-linecap="round" transform="matrix(0.441309, -0.758744, 0.758744, 0.441309, 234.430383, 662.621058)" fill="none" stroke-linejoin="round" d="M 156.262502 5.498642 C 156.266611 14.613907 148.876598 22.001151 139.762942 21.999176 C 130.651524 22.001047 123.26428 14.611035 123.262409 5.499616 C 123.264384 -3.614039 130.65055 -10.999046 139.761968 -11.000917 C 148.875624 -10.998941 156.264477 -3.615013 156.262502 5.498642 " stroke="#ffffff" stroke-width="11" stroke-opacity="1" stroke-miterlimit="4"/><path stroke-linecap="butt" transform="matrix(0.438875, -0.760155, 0.760155, 0.438875, 433.138733, 891.171455)" fill="none" stroke-linejoin="miter" d="M -0.000243312 5.501101 L 123.9252 5.499639 " stroke="#ffffff" stroke-width="11" stroke-opacity="1" stroke-miterlimit="4"/><path stroke-linecap="round" transform="matrix(0.438875, -0.760155, 0.760155, 0.438875, 433.138733, 891.171455)" fill="none" stroke-linejoin="round" d="M 159.670292 5.499452 C 159.674992 14.612896 152.284629 21.99895 143.17504 22.001424 C 134.059372 22.00227 126.673318 14.611907 126.674697 5.500093 C 126.673852 -3.615576 134.06036 -10.999405 143.172175 -10.998025 C 152.287843 -10.998871 159.671672 -3.612362 159.670292 5.499452 " stroke="#ffffff" stroke-width="11" stroke-opacity="1" stroke-miterlimit="4"/><path stroke-linecap="butt" transform="matrix(-0.877751, 0.00000000153196, -0.00000000153196, -0.877751, 440.898316, 896.311894)" fill="none" stroke-linejoin="miter" d="M -0.000138422 5.499874 L 120.513844 5.499874 " stroke="#ffffff" stroke-width="11" stroke-opacity="1" stroke-miterlimit="4"/><path stroke-linecap="round" transform="matrix(-0.877751, 0.00000000153196, -0.00000000153196, -0.877751, 440.898316, 896.311894)" fill="none" stroke-linejoin="round" d="M 156.263062 5.499874 C 156.263062 14.614078 148.875573 22.001567 139.765819 22.001567 C 130.651616 22.001567 123.264126 14.614078 123.264126 5.499874 C 123.264126 -3.614329 130.651616 -11.001819 139.76582 -11.001819 C 148.875573 -11.001819 156.263062 -3.614329 156.263062 5.499874 " stroke="#ffffff" stroke-width="11" stroke-opacity="1" stroke-miterlimit="4"/><path stroke-linecap="butt" transform="matrix(0.87775, -0.00106044, 0.00106044, 0.87775, 269.585268, 829.581772)" fill="none" stroke-linejoin="miter" d="M -0.00143237 5.500862 L 123.92157 5.499267 " stroke="#ffffff" stroke-width="11" stroke-opacity="1" stroke-miterlimit="4"/><path stroke-linecap="round" transform="matrix(0.87775, -0.00106044, 0.00106044, 0.87775, 269.585268, 829.581772)" fill="none" stroke-linejoin="round" d="M 159.675266 5.49796 C 159.673155 14.612168 152.285636 21.999638 143.171423 22.001978 C 134.061665 21.999872 126.674195 14.612353 126.671855 5.49814 C 126.67396 -3.611618 134.06148 -10.999088 143.171243 -11.001433 C 152.28545 -10.999323 159.672921 -3.611803 159.675266 5.49796 " stroke="#ffffff" stroke-width="11" stroke-opacity="1" stroke-miterlimit="4"/><path stroke-linecap="butt" transform="matrix(-0.439793, -0.759624, 0.759624, -0.439793, 269.137994, 839.182635)" fill="none" stroke-linejoin="miter" d="M -0.00210255 5.499416 L 120.514954 5.497714 " stroke="#ffffff" stroke-width="11" stroke-opacity="1" stroke-miterlimit="4"/><path stroke-linecap="round" transform="matrix(-0.439793, -0.759624, 0.759624, -0.439793, 269.137994, 839.182635)" fill="none" stroke-linejoin="round" d="M 156.262451 5.501354 C 156.262756 14.613771 148.875482 21.999665 139.763065 21.999969 C 130.650648 22.000273 123.264754 14.613 123.26445 5.500583 C 123.264146 -3.611835 130.65142 -10.997728 139.763837 -10.998032 C 148.876254 -10.998336 156.264377 -3.614914 156.262451 5.501354 " stroke="#ffffff" stroke-width="11" stroke-opacity="1" stroke-miterlimit="4"/></svg>